<?xml version="1.0" encoding="utf-8"?>
<!-- Generator: Adobe Illustrator 25.2.1, SVG Export Plug-In . SVG Version: 6.00 Build 0)  -->
<svg version="1.1" id="레이어_1" xmlns="http://www.w3.org/2000/svg" xmlns:xlink="http://www.w3.org/1999/xlink" x="0px"
	 y="0px" viewBox="0 0 30 30" style="enable-background:new 0 0 30 30;" xml:space="preserve">
<g>
	<path d="M15,0C6.72,0,0,6.72,0,15s6.72,15,15,15c8.28,0,15-6.72,15-15S23.28,0,15,0z M15,27.4C8.15,27.4,2.6,21.85,2.6,15
		C2.6,8.15,8.15,2.6,15,2.6c6.85,0,12.4,5.55,12.4,12.4C27.4,21.85,21.85,27.4,15,27.4z"/>
	<ellipse transform="matrix(0.9871 -0.1602 0.1602 0.9871 -1.4255 2.2935)" cx="13.51" cy="9.99" rx="2.66" ry="2.66"/>
	<ellipse transform="matrix(0.9871 -0.1602 0.1602 0.9871 -2.0945 3.2065)" cx="18.84" cy="14.59" rx="2.66" ry="2.66"/>
	<ellipse transform="matrix(0.9871 -0.1602 0.1602 0.9871 -3.0168 2.4218)" cx="13.51" cy="19.92" rx="2.66" ry="2.66"/>
</g>
</svg>
