<?xml version="1.0" encoding="utf-8"?>
<!-- Generator: Adobe Illustrator 25.2.1, SVG Export Plug-In . SVG Version: 6.00 Build 0)  -->
<svg version="1.1" id="레이어_1" xmlns="http://www.w3.org/2000/svg" xmlns:xlink="http://www.w3.org/1999/xlink" x="0px"
	 y="0px" viewBox="0 0 30 30" style="enable-background:new 0 0 30 30;" xml:space="preserve">
<g>
	<path d="M15,0C6.72,0,0,6.72,0,15s6.72,15,15,15c8.28,0,15-6.72,15-15S23.28,0,15,0z M15,27.4C8.15,27.4,2.6,21.85,2.6,15
		C2.6,8.15,8.15,2.6,15,2.6c6.85,0,12.4,5.55,12.4,12.4C27.4,21.85,21.85,27.4,15,27.4z"/>
	<g>
		<path d="M15,24.83L15,24.83c-0.96,0-1.74-0.78-1.74-1.74V6.76c0-0.96,0.78-1.74,1.74-1.74h0c0.96,0,1.74,0.78,1.74,1.74v16.34
			C16.74,24.05,15.96,24.83,15,24.83z"/>
	</g>
	<g>
		<path d="M9.96,20.26L9.96,20.26c-0.96,0-1.74-0.78-1.74-1.74v-7.2c0-0.96,0.78-1.74,1.74-1.74h0c0.96,0,1.74,0.78,1.74,1.74v7.2
			C11.7,19.48,10.92,20.26,9.96,20.26z"/>
	</g>
	<g>
		<path d="M20.16,20.26L20.16,20.26c-0.96,0-1.74-0.78-1.74-1.74v-7.2c0-0.96,0.78-1.74,1.74-1.74h0c0.96,0,1.74,0.78,1.74,1.74v7.2
			C21.9,19.48,21.12,20.26,20.16,20.26z"/>
	</g>
</g>
</svg>
