<?xml version="1.0" encoding="utf-8"?>
<!-- Generator: Adobe Illustrator 25.2.1, SVG Export Plug-In . SVG Version: 6.00 Build 0)  -->
<svg version="1.1" id="레이어_1" xmlns="http://www.w3.org/2000/svg" xmlns:xlink="http://www.w3.org/1999/xlink" x="0px"
	 y="0px" viewBox="0 0 30 30" style="enable-background:new 0 0 30 30;" xml:space="preserve">
<g>
	<path d="M15,0C6.72,0,0,6.72,0,15s6.72,15,15,15c8.28,0,15-6.72,15-15S23.28,0,15,0z M15,27.4C8.15,27.4,2.6,21.85,2.6,15
		C2.6,8.15,8.15,2.6,15,2.6c6.85,0,12.4,5.55,12.4,12.4C27.4,21.85,21.85,27.4,15,27.4z"/>
	<g>
		<path d="M15,5.37c-5.32,0-9.63,4.31-9.63,9.63s4.31,9.63,9.63,9.63c5.32,0,9.63-4.31,9.63-9.63S20.32,5.37,15,5.37z M14.99,21.25
			c-3.46,0-6.26-2.8-6.26-6.26s2.8-6.26,6.26-6.26c3.46,0,6.26,2.8,6.26,6.26S18.44,21.25,14.99,21.25z"/>
		<rect x="13.26" y="7.22" width="3.47" height="15.55"/>
	</g>
</g>
</svg>
